<?xml version="1.0" encoding="utf-8"?>
<svg xmlns="http://www.w3.org/2000/svg" width="1000" height="2792">
<rect width="100%" height="100%" fill="white"/>
<style>
    text { font-family: 'Segoe UI', Arial, sans-serif; font-size: 13px; }
    .title { font-size: 18px; font-weight: 600; fill: #1f2937; }
    .task-header { font-size: 15px; font-weight: 600; fill: #374151; }
    .lang-label { font-size: 12px; fill: #4b5563; }
    .time-label { font-size: 11px; fill: #6b7280; font-weight: 500; }
    .bar { rx: 3; ry: 3; }
    .divider { stroke: #e5e7eb; stroke-width: 1; }
  </style>
<text x="20" y="30" class="title">Multi-Language Benchmark Results</text>
<text x="20" y="50" style="font-size:12px;fill:#6b7280;">Performance comparison (fastest → slowest within each task)</text>
<text x="20" y="88" class="task-header">sieve_primes</text>
<text x="20" y="123" class="lang-label">zig</text><rect x="180" y="109" width="4" height="20" fill="#22c55e" class="bar" opacity="0.8"/><rect x="180" y="109" width="4" height="6" fill="#22c55e" class="bar"/><text x="192" y="123" class="time-label">0.012s</text>
<text x="20" y="155" class="lang-label">d</text><rect x="180" y="141" width="4" height="20" fill="#22c55e" class="bar" opacity="0.8"/><rect x="180" y="141" width="4" height="6" fill="#22c55e" class="bar"/><text x="192" y="155" class="time-label">0.016s</text>
<text x="20" y="187" class="lang-label">cpp</text><rect x="180" y="173" width="4" height="20" fill="#22c55e" class="bar" opacity="0.8"/><rect x="180" y="173" width="4" height="6" fill="#22c55e" class="bar"/><text x="192" y="187" class="time-label">0.016s</text>
<text x="20" y="219" class="lang-label">rust</text><rect x="180" y="205" width="4" height="20" fill="#22c55e" class="bar" opacity="0.8"/><rect x="180" y="205" width="4" height="6" fill="#22c55e" class="bar"/><text x="192" y="219" class="time-label">0.018s</text>
<text x="20" y="251" class="lang-label">go</text><rect x="180" y="237" width="4" height="20" fill="#22c55e" class="bar" opacity="0.8"/><rect x="180" y="237" width="4" height="6" fill="#22c55e" class="bar"/><text x="192" y="251" class="time-label">0.018s</text>
<text x="20" y="283" class="lang-label">c</text><rect x="180" y="269" width="4" height="20" fill="#22c55e" class="bar" opacity="0.8"/><rect x="180" y="269" width="4" height="6" fill="#22c55e" class="bar"/><text x="192" y="283" class="time-label">0.021s</text>
<text x="20" y="315" class="lang-label">nim</text><rect x="180" y="301" width="4" height="20" fill="#3b82f6" class="bar" opacity="0.8"/><rect x="180" y="301" width="4" height="6" fill="#3b82f6" class="bar"/><text x="192" y="315" class="time-label">0.027s</text>
<text x="20" y="347" class="lang-label">swift</text><rect x="180" y="333" width="4" height="20" fill="#3b82f6" class="bar" opacity="0.8"/><rect x="180" y="333" width="4" height="6" fill="#3b82f6" class="bar"/><text x="192" y="347" class="time-label">0.031s</text>
<text x="20" y="379" class="lang-label">bun</text><rect x="180" y="365" width="4" height="20" fill="#3b82f6" class="bar" opacity="0.8"/><rect x="180" y="365" width="4" height="6" fill="#3b82f6" class="bar"/><text x="192" y="379" class="time-label">0.038s</text>
<text x="20" y="411" class="lang-label">python</text><rect x="180" y="397" width="4" height="20" fill="#3b82f6" class="bar" opacity="0.8"/><rect x="180" y="397" width="4" height="6" fill="#3b82f6" class="bar"/><text x="192" y="411" class="time-label">0.049s</text>
<text x="20" y="443" class="lang-label">node</text><rect x="180" y="429" width="4" height="20" fill="#3b82f6" class="bar" opacity="0.8"/><rect x="180" y="429" width="4" height="6" fill="#3b82f6" class="bar"/><text x="192" y="443" class="time-label">0.049s</text>
<text x="20" y="475" class="lang-label">java</text><rect x="180" y="461" width="4" height="20" fill="#f59e0b" class="bar" opacity="0.8"/><rect x="180" y="461" width="4" height="6" fill="#f59e0b" class="bar"/><text x="192" y="475" class="time-label">0.052s</text>
<text x="20" y="507" class="lang-label">deno</text><rect x="180" y="493" width="4" height="20" fill="#f59e0b" class="bar" opacity="0.8"/><rect x="180" y="493" width="4" height="6" fill="#f59e0b" class="bar"/><text x="192" y="507" class="time-label">0.059s</text>
<text x="20" y="539" class="lang-label">kotlin</text><rect x="180" y="525" width="4" height="20" fill="#f59e0b" class="bar" opacity="0.8"/><rect x="180" y="525" width="4" height="6" fill="#f59e0b" class="bar"/><text x="192" y="539" class="time-label">0.059s</text>
<text x="20" y="571" class="lang-label">csharp</text><rect x="180" y="557" width="4" height="20" fill="#f59e0b" class="bar" opacity="0.8"/><rect x="180" y="557" width="4" height="6" fill="#f59e0b" class="bar"/><text x="192" y="571" class="time-label">0.099s</text>
<text x="20" y="603" class="lang-label">pypy</text><rect x="180" y="589" width="4" height="20" fill="#ef4444" class="bar" opacity="0.8"/><rect x="180" y="589" width="4" height="6" fill="#ef4444" class="bar"/><text x="192" y="603" class="time-label">0.128s</text>
<text x="20" y="635" class="lang-label">lua</text><rect x="180" y="621" width="6" height="20" fill="#ef4444" class="bar" opacity="0.8"/><rect x="180" y="621" width="6" height="6" fill="#ef4444" class="bar"/><text x="194" y="635" class="time-label">0.431s</text>
<text x="20" y="667" class="lang-label">julia</text><rect x="180" y="653" width="17" height="20" fill="#ef4444" class="bar" opacity="0.8"/><rect x="180" y="653" width="17" height="6" fill="#ef4444" class="bar"/><text x="205" y="667" class="time-label">1.120s</text>
<text x="20" y="699" class="lang-label">elixir</text><rect x="180" y="685" width="135" height="20" fill="#ef4444" class="bar" opacity="0.8"/><rect x="180" y="685" width="135" height="6" fill="#ef4444" class="bar"/><text x="323" y="699" class="time-label">8.968s</text>
<line x1="20" y1="743" x2="980" y2="743" class="divider"/>
<text x="20" y="771" class="task-header">sort_ints</text>
<text x="20" y="806" class="lang-label">rust</text><rect x="180" y="792" width="4" height="20" fill="#22c55e" class="bar" opacity="0.8"/><rect x="180" y="792" width="4" height="6" fill="#22c55e" class="bar"/><text x="192" y="806" class="time-label">0.046s</text>
<text x="20" y="838" class="lang-label">cpp</text><rect x="180" y="824" width="4" height="20" fill="#22c55e" class="bar" opacity="0.8"/><rect x="180" y="824" width="4" height="6" fill="#22c55e" class="bar"/><text x="192" y="838" class="time-label">0.146s</text>
<text x="20" y="870" class="lang-label">d</text><rect x="180" y="856" width="4" height="20" fill="#22c55e" class="bar" opacity="0.8"/><rect x="180" y="856" width="4" height="6" fill="#22c55e" class="bar"/><text x="192" y="870" class="time-label">0.157s</text>
<text x="20" y="902" class="lang-label">swift</text><rect x="180" y="888" width="4" height="20" fill="#22c55e" class="bar" opacity="0.8"/><rect x="180" y="888" width="4" height="6" fill="#22c55e" class="bar"/><text x="192" y="902" class="time-label">0.175s</text>
<text x="20" y="934" class="lang-label">zig</text><rect x="180" y="920" width="4" height="20" fill="#22c55e" class="bar" opacity="0.8"/><rect x="180" y="920" width="4" height="6" fill="#22c55e" class="bar"/><text x="192" y="934" class="time-label">0.181s</text>
<text x="20" y="966" class="lang-label">c</text><rect x="180" y="952" width="4" height="20" fill="#22c55e" class="bar" opacity="0.8"/><rect x="180" y="952" width="4" height="6" fill="#22c55e" class="bar"/><text x="192" y="966" class="time-label">0.244s</text>
<text x="20" y="998" class="lang-label">kotlin</text><rect x="180" y="984" width="4" height="20" fill="#3b82f6" class="bar" opacity="0.8"/><rect x="180" y="984" width="4" height="6" fill="#3b82f6" class="bar"/><text x="192" y="998" class="time-label">0.279s</text>
<text x="20" y="1030" class="lang-label">go</text><rect x="180" y="1016" width="5" height="20" fill="#3b82f6" class="bar" opacity="0.8"/><rect x="180" y="1016" width="5" height="6" fill="#3b82f6" class="bar"/><text x="193" y="1030" class="time-label">0.300s</text>
<text x="20" y="1062" class="lang-label">java</text><rect x="180" y="1048" width="5" height="20" fill="#3b82f6" class="bar" opacity="0.8"/><rect x="180" y="1048" width="5" height="6" fill="#3b82f6" class="bar"/><text x="193" y="1062" class="time-label">0.302s</text>
<text x="20" y="1094" class="lang-label">csharp</text><rect x="180" y="1080" width="5" height="20" fill="#3b82f6" class="bar" opacity="0.8"/><rect x="180" y="1080" width="5" height="6" fill="#3b82f6" class="bar"/><text x="193" y="1094" class="time-label">0.351s</text>
<text x="20" y="1126" class="lang-label">nim</text><rect x="180" y="1112" width="5" height="20" fill="#3b82f6" class="bar" opacity="0.8"/><rect x="180" y="1112" width="5" height="6" fill="#3b82f6" class="bar"/><text x="193" y="1126" class="time-label">0.359s</text>
<text x="20" y="1158" class="lang-label">pypy</text><rect x="180" y="1144" width="7" height="20" fill="#f59e0b" class="bar" opacity="0.8"/><rect x="180" y="1144" width="7" height="6" fill="#f59e0b" class="bar"/><text x="195" y="1158" class="time-label">0.450s</text>
<text x="20" y="1190" class="lang-label">lua</text><rect x="180" y="1176" width="12" height="20" fill="#f59e0b" class="bar" opacity="0.8"/><rect x="180" y="1176" width="12" height="6" fill="#f59e0b" class="bar"/><text x="200" y="1190" class="time-label">0.804s</text>
<text x="20" y="1222" class="lang-label">bun</text><rect x="180" y="1208" width="18" height="20" fill="#f59e0b" class="bar" opacity="0.8"/><rect x="180" y="1208" width="18" height="6" fill="#f59e0b" class="bar"/><text x="206" y="1222" class="time-label">1.177s</text>
<text x="20" y="1254" class="lang-label">julia</text><rect x="180" y="1240" width="18" height="20" fill="#f59e0b" class="bar" opacity="0.8"/><rect x="180" y="1240" width="18" height="6" fill="#f59e0b" class="bar"/><text x="206" y="1254" class="time-label">1.203s</text>
<text x="20" y="1286" class="lang-label">node</text><rect x="180" y="1272" width="23" height="20" fill="#ef4444" class="bar" opacity="0.8"/><rect x="180" y="1272" width="23" height="6" fill="#ef4444" class="bar"/><text x="211" y="1286" class="time-label">1.510s</text>
<text x="20" y="1318" class="lang-label">python</text><rect x="180" y="1304" width="25" height="20" fill="#ef4444" class="bar" opacity="0.8"/><rect x="180" y="1304" width="25" height="6" fill="#ef4444" class="bar"/><text x="213" y="1318" class="time-label">1.680s</text>
<text x="20" y="1350" class="lang-label">elixir</text><rect x="180" y="1336" width="33" height="20" fill="#ef4444" class="bar" opacity="0.8"/><rect x="180" y="1336" width="33" height="6" fill="#ef4444" class="bar"/><text x="221" y="1350" class="time-label">2.188s</text>
<text x="20" y="1382" class="lang-label">deno</text><rect x="180" y="1368" width="35" height="20" fill="#ef4444" class="bar" opacity="0.8"/><rect x="180" y="1368" width="35" height="6" fill="#ef4444" class="bar"/><text x="223" y="1382" class="time-label">2.333s</text>
<line x1="20" y1="1426" x2="980" y2="1426" class="divider"/>
<text x="20" y="1454" class="task-header">matmul_f64</text>
<text x="20" y="1489" class="lang-label">zig</text><rect x="180" y="1475" width="4" height="20" fill="#22c55e" class="bar" opacity="0.8"/><rect x="180" y="1475" width="4" height="6" fill="#22c55e" class="bar"/><text x="192" y="1489" class="time-label">0.004s</text>
<text x="20" y="1521" class="lang-label">c</text><rect x="180" y="1507" width="4" height="20" fill="#22c55e" class="bar" opacity="0.8"/><rect x="180" y="1507" width="4" height="6" fill="#22c55e" class="bar"/><text x="192" y="1521" class="time-label">0.005s</text>
<text x="20" y="1553" class="lang-label">d</text><rect x="180" y="1539" width="4" height="20" fill="#22c55e" class="bar" opacity="0.8"/><rect x="180" y="1539" width="4" height="6" fill="#22c55e" class="bar"/><text x="192" y="1553" class="time-label">0.005s</text>
<text x="20" y="1585" class="lang-label">cpp</text><rect x="180" y="1571" width="4" height="20" fill="#22c55e" class="bar" opacity="0.8"/><rect x="180" y="1571" width="4" height="6" fill="#22c55e" class="bar"/><text x="192" y="1585" class="time-label">0.006s</text>
<text x="20" y="1617" class="lang-label">rust</text><rect x="180" y="1603" width="4" height="20" fill="#22c55e" class="bar" opacity="0.8"/><rect x="180" y="1603" width="4" height="6" fill="#22c55e" class="bar"/><text x="192" y="1617" class="time-label">0.006s</text>
<text x="20" y="1649" class="lang-label">go</text><rect x="180" y="1635" width="4" height="20" fill="#22c55e" class="bar" opacity="0.8"/><rect x="180" y="1635" width="4" height="6" fill="#22c55e" class="bar"/><text x="192" y="1649" class="time-label">0.017s</text>
<text x="20" y="1681" class="lang-label">swift</text><rect x="180" y="1667" width="4" height="20" fill="#3b82f6" class="bar" opacity="0.8"/><rect x="180" y="1667" width="4" height="6" fill="#3b82f6" class="bar"/><text x="192" y="1681" class="time-label">0.020s</text>
<text x="20" y="1713" class="lang-label">nim</text><rect x="180" y="1699" width="4" height="20" fill="#3b82f6" class="bar" opacity="0.8"/><rect x="180" y="1699" width="4" height="6" fill="#3b82f6" class="bar"/><text x="192" y="1713" class="time-label">0.038s</text>
<text x="20" y="1745" class="lang-label">bun</text><rect x="180" y="1731" width="4" height="20" fill="#3b82f6" class="bar" opacity="0.8"/><rect x="180" y="1731" width="4" height="6" fill="#3b82f6" class="bar"/><text x="192" y="1745" class="time-label">0.047s</text>
<text x="20" y="1777" class="lang-label">java</text><rect x="180" y="1763" width="4" height="20" fill="#3b82f6" class="bar" opacity="0.8"/><rect x="180" y="1763" width="4" height="6" fill="#3b82f6" class="bar"/><text x="192" y="1777" class="time-label">0.052s</text>
<text x="20" y="1809" class="lang-label">kotlin</text><rect x="180" y="1795" width="4" height="20" fill="#3b82f6" class="bar" opacity="0.8"/><rect x="180" y="1795" width="4" height="6" fill="#3b82f6" class="bar"/><text x="192" y="1809" class="time-label">0.065s</text>
<text x="20" y="1841" class="lang-label">deno</text><rect x="180" y="1827" width="4" height="20" fill="#f59e0b" class="bar" opacity="0.8"/><rect x="180" y="1827" width="4" height="6" fill="#f59e0b" class="bar"/><text x="192" y="1841" class="time-label">0.068s</text>
<text x="20" y="1873" class="lang-label">node</text><rect x="180" y="1859" width="4" height="20" fill="#f59e0b" class="bar" opacity="0.8"/><rect x="180" y="1859" width="4" height="6" fill="#f59e0b" class="bar"/><text x="192" y="1873" class="time-label">0.079s</text>
<text x="20" y="1905" class="lang-label">csharp</text><rect x="180" y="1891" width="4" height="20" fill="#f59e0b" class="bar" opacity="0.8"/><rect x="180" y="1891" width="4" height="6" fill="#f59e0b" class="bar"/><text x="192" y="1905" class="time-label">0.105s</text>
<text x="20" y="1937" class="lang-label">pypy</text><rect x="180" y="1923" width="4" height="20" fill="#f59e0b" class="bar" opacity="0.8"/><rect x="180" y="1923" width="4" height="6" fill="#f59e0b" class="bar"/><text x="192" y="1937" class="time-label">0.140s</text>
<text x="20" y="1969" class="lang-label">lua</text><rect x="180" y="1955" width="8" height="20" fill="#ef4444" class="bar" opacity="0.8"/><rect x="180" y="1955" width="8" height="6" fill="#ef4444" class="bar"/><text x="196" y="1969" class="time-label">0.535s</text>
<text x="20" y="2001" class="lang-label">julia</text><rect x="180" y="1987" width="17" height="20" fill="#ef4444" class="bar" opacity="0.8"/><rect x="180" y="1987" width="17" height="6" fill="#ef4444" class="bar"/><text x="205" y="2001" class="time-label">1.139s</text>
<text x="20" y="2033" class="lang-label">python</text><rect x="180" y="2019" width="20" height="20" fill="#ef4444" class="bar" opacity="0.8"/><rect x="180" y="2019" width="20" height="6" fill="#ef4444" class="bar"/><text x="208" y="2033" class="time-label">1.309s</text>
<text x="20" y="2065" class="lang-label">elixir</text><rect x="180" y="2051" width="630" height="20" fill="#ef4444" class="bar" opacity="0.8"/><rect x="180" y="2051" width="630" height="6" fill="#ef4444" class="bar"/><text x="818" y="2065" class="time-label">46.561s</text>
<line x1="20" y1="2109" x2="980" y2="2109" class="divider"/>
<text x="20" y="2137" class="task-header">string_kmp</text>
<text x="20" y="2172" class="lang-label">zig</text><rect x="180" y="2158" width="4" height="20" fill="#22c55e" class="bar" opacity="0.8"/><rect x="180" y="2158" width="4" height="6" fill="#22c55e" class="bar"/><text x="192" y="2172" class="time-label">0.014s</text>
<text x="20" y="2204" class="lang-label">rust</text><rect x="180" y="2190" width="4" height="20" fill="#22c55e" class="bar" opacity="0.8"/><rect x="180" y="2190" width="4" height="6" fill="#22c55e" class="bar"/><text x="192" y="2204" class="time-label">0.015s</text>
<text x="20" y="2236" class="lang-label">d</text><rect x="180" y="2222" width="4" height="20" fill="#22c55e" class="bar" opacity="0.8"/><rect x="180" y="2222" width="4" height="6" fill="#22c55e" class="bar"/><text x="192" y="2236" class="time-label">0.016s</text>
<text x="20" y="2268" class="lang-label">c</text><rect x="180" y="2254" width="4" height="20" fill="#22c55e" class="bar" opacity="0.8"/><rect x="180" y="2254" width="4" height="6" fill="#22c55e" class="bar"/><text x="192" y="2268" class="time-label">0.017s</text>
<text x="20" y="2300" class="lang-label">cpp</text><rect x="180" y="2286" width="4" height="20" fill="#22c55e" class="bar" opacity="0.8"/><rect x="180" y="2286" width="4" height="6" fill="#22c55e" class="bar"/><text x="192" y="2300" class="time-label">0.019s</text>
<text x="20" y="2332" class="lang-label">go</text><rect x="180" y="2318" width="4" height="20" fill="#22c55e" class="bar" opacity="0.8"/><rect x="180" y="2318" width="4" height="6" fill="#22c55e" class="bar"/><text x="192" y="2332" class="time-label">0.021s</text>
<text x="20" y="2364" class="lang-label">nim</text><rect x="180" y="2350" width="4" height="20" fill="#3b82f6" class="bar" opacity="0.8"/><rect x="180" y="2350" width="4" height="6" fill="#3b82f6" class="bar"/><text x="192" y="2364" class="time-label">0.023s</text>
<text x="20" y="2396" class="lang-label">swift</text><rect x="180" y="2382" width="4" height="20" fill="#3b82f6" class="bar" opacity="0.8"/><rect x="180" y="2382" width="4" height="6" fill="#3b82f6" class="bar"/><text x="192" y="2396" class="time-label">0.025s</text>
<text x="20" y="2428" class="lang-label">java</text><rect x="180" y="2414" width="4" height="20" fill="#3b82f6" class="bar" opacity="0.8"/><rect x="180" y="2414" width="4" height="6" fill="#3b82f6" class="bar"/><text x="192" y="2428" class="time-label">0.045s</text>
<text x="20" y="2460" class="lang-label">kotlin</text><rect x="180" y="2446" width="4" height="20" fill="#3b82f6" class="bar" opacity="0.8"/><rect x="180" y="2446" width="4" height="6" fill="#3b82f6" class="bar"/><text x="192" y="2460" class="time-label">0.065s</text>
<text x="20" y="2492" class="lang-label">deno</text><rect x="180" y="2478" width="4" height="20" fill="#3b82f6" class="bar" opacity="0.8"/><rect x="180" y="2478" width="4" height="6" fill="#3b82f6" class="bar"/><text x="192" y="2492" class="time-label">0.088s</text>
<text x="20" y="2524" class="lang-label">node</text><rect x="180" y="2510" width="4" height="20" fill="#f59e0b" class="bar" opacity="0.8"/><rect x="180" y="2510" width="4" height="6" fill="#f59e0b" class="bar"/><text x="192" y="2524" class="time-label">0.091s</text>
<text x="20" y="2556" class="lang-label">csharp</text><rect x="180" y="2542" width="4" height="20" fill="#f59e0b" class="bar" opacity="0.8"/><rect x="180" y="2542" width="4" height="6" fill="#f59e0b" class="bar"/><text x="192" y="2556" class="time-label">0.102s</text>
<text x="20" y="2588" class="lang-label">pypy</text><rect x="180" y="2574" width="4" height="20" fill="#f59e0b" class="bar" opacity="0.8"/><rect x="180" y="2574" width="4" height="6" fill="#f59e0b" class="bar"/><text x="192" y="2588" class="time-label">0.146s</text>
<text x="20" y="2620" class="lang-label">bun</text><rect x="180" y="2606" width="9" height="20" fill="#f59e0b" class="bar" opacity="0.8"/><rect x="180" y="2606" width="9" height="6" fill="#f59e0b" class="bar"/><text x="197" y="2620" class="time-label">0.626s</text>
<text x="20" y="2652" class="lang-label">julia</text><rect x="180" y="2638" width="18" height="20" fill="#ef4444" class="bar" opacity="0.8"/><rect x="180" y="2638" width="18" height="6" fill="#ef4444" class="bar"/><text x="206" y="2652" class="time-label">1.205s</text>
<text x="20" y="2684" class="lang-label">python</text><rect x="180" y="2670" width="20" height="20" fill="#ef4444" class="bar" opacity="0.8"/><rect x="180" y="2670" width="20" height="6" fill="#ef4444" class="bar"/><text x="208" y="2684" class="time-label">1.352s</text>
<text x="20" y="2716" class="lang-label">lua</text><rect x="180" y="2702" width="23" height="20" fill="#ef4444" class="bar" opacity="0.8"/><rect x="180" y="2702" width="23" height="6" fill="#ef4444" class="bar"/><text x="211" y="2716" class="time-label">1.536s</text>
<text x="20" y="2748" class="lang-label">elixir</text><rect x="180" y="2734" width="43" height="20" fill="#ef4444" class="bar" opacity="0.8"/><rect x="180" y="2734" width="43" height="6" fill="#ef4444" class="bar"/><text x="231" y="2748" class="time-label">2.885s</text>
</svg>