<?xml version="1.0" encoding="utf-8"?>
<svg xmlns="http://www.w3.org/2000/svg" width="1000" height="460">
<rect width="100%" height="100%" fill="white"/>
<style>
      text { font-family: 'Segoe UI', Arial, sans-serif; font-size: 13px; }
      .title { font-size: 18px; font-weight: 600; fill: #1f2937; }
      .task-header { font-size: 15px; font-weight: 600; fill: #374151; }
      .lang-label { font-size: 12px; fill: #4b5563; }
      .time-label { font-size: 11px; fill: #6b7280; font-weight: 500; }
      .bar { rx: 3; ry: 3; }
      .divider { stroke: #e5e7eb; stroke-width: 1; }
    </style>
<text x="20" y="30" class="title">Multi-Language Benchmark Results</text>
<text x="20" y="50" style="font-size:12px;fill:#6b7280;">Performance comparison (fastest → slowest within each task)</text>
<text x="20" y="88" class="task-header">sieve_primes</text>
<text x="20" y="123" class="lang-label">lua</text><rect x="180" y="109" width="5" height="20" fill="#22c55e" class="bar" opacity="0.8"/><rect x="180" y="109" width="5" height="6" fill="#22c55e" class="bar"/><text x="193" y="123" class="time-label">0.008s</text>
<text x="20" y="155" class="lang-label">pypy</text><rect x="180" y="141" width="14" height="20" fill="#22c55e" class="bar" opacity="0.8"/><rect x="180" y="141" width="14" height="6" fill="#22c55e" class="bar"/><text x="202" y="155" class="time-label">0.021s</text>
<text x="20" y="187" class="lang-label">python</text><rect x="180" y="173" width="14" height="20" fill="#3b82f6" class="bar" opacity="0.8"/><rect x="180" y="173" width="14" height="6" fill="#3b82f6" class="bar"/><text x="202" y="187" class="time-label">0.021s</text>
<text x="20" y="219" class="lang-label">node</text><rect x="180" y="205" width="38" height="20" fill="#f59e0b" class="bar" opacity="0.8"/><rect x="180" y="205" width="38" height="6" fill="#f59e0b" class="bar"/><text x="226" y="219" class="time-label">0.056s</text>
<text x="20" y="251" class="lang-label">julia</text><rect x="180" y="237" width="700" height="20" fill="#ef4444" class="bar" opacity="0.8"/><rect x="180" y="237" width="700" height="6" fill="#ef4444" class="bar"/><text x="888" y="251" class="time-label">1.018s</text>
<line x1="20" y1="275" x2="980" y2="275" class="divider"/>
<text x="20" y="303" class="task-header">sort_ints</text>
<text x="20" y="338" class="lang-label">lua</text><rect x="180" y="324" width="14" height="20" fill="#22c55e" class="bar" opacity="0.8"/><rect x="180" y="324" width="14" height="6" fill="#22c55e" class="bar"/><text x="202" y="338" class="time-label">0.020s</text>
<text x="20" y="370" class="lang-label">pypy</text><rect x="180" y="356" width="29" height="20" fill="#22c55e" class="bar" opacity="0.8"/><rect x="180" y="356" width="29" height="6" fill="#22c55e" class="bar"/><text x="217" y="370" class="time-label">0.042s</text>
<text x="20" y="402" class="lang-label">python</text><rect x="180" y="388" width="30" height="20" fill="#3b82f6" class="bar" opacity="0.8"/><rect x="180" y="388" width="30" height="6" fill="#3b82f6" class="bar"/><text x="218" y="402" class="time-label">0.043s</text>
<text x="20" y="434" class="lang-label">node</text><rect x="180" y="420" width="57" height="20" fill="#f59e0b" class="bar" opacity="0.8"/><rect x="180" y="420" width="57" height="6" fill="#f59e0b" class="bar"/><text x="245" y="434" class="time-label">0.083s</text>
<text x="20" y="466" class="lang-label">julia</text><rect x="180" y="452" width="700" height="20" fill="#ef4444" class="bar" opacity="0.8"/><rect x="180" y="452" width="700" height="6" fill="#ef4444" class="bar"/><text x="888" y="466" class="time-label">1.018s</text>
</svg>