<?xml version="1.0" encoding="utf-8"?>
<svg xmlns="http://www.w3.org/2000/svg" width="1000" height="1588">
<rect width="100%" height="100%" fill="white"/>
<style>
      text { font-family: 'Segoe UI', Arial, sans-serif; font-size: 13px; }
      .title { font-size: 18px; font-weight: 600; fill: #1f2937; }
      .task-header { font-size: 15px; font-weight: 600; fill: #374151; }
      .lang-label { font-size: 12px; fill: #4b5563; }
      .time-label { font-size: 11px; fill: #6b7280; font-weight: 500; }
      .bar { rx: 3; ry: 3; }
      .divider { stroke: #e5e7eb; stroke-width: 1; }
    </style>
<text x="20" y="30" class="title">Multi-Language Benchmark Results</text>
<text x="20" y="50" style="font-size:12px;fill:#6b7280;">Performance comparison (fastest → slowest within each task)</text>
<text x="20" y="88" class="task-header">sieve_primes</text>
<text x="20" y="123" class="lang-label">rust</text><rect x="180" y="109" width="8" height="20" fill="#22c55e" class="bar" opacity="0.8"/><rect x="180" y="109" width="8" height="6" fill="#22c55e" class="bar"/><text x="196" y="123" class="time-label">0.017s</text>
<text x="20" y="155" class="lang-label">cpp</text><rect x="180" y="141" width="8" height="20" fill="#22c55e" class="bar" opacity="0.8"/><rect x="180" y="141" width="8" height="6" fill="#22c55e" class="bar"/><text x="196" y="155" class="time-label">0.017s</text>
<text x="20" y="187" class="lang-label">go</text><rect x="180" y="173" width="8" height="20" fill="#22c55e" class="bar" opacity="0.8"/><rect x="180" y="173" width="8" height="6" fill="#22c55e" class="bar"/><text x="196" y="187" class="time-label">0.018s</text>
<text x="20" y="219" class="lang-label">c</text><rect x="180" y="205" width="8" height="20" fill="#3b82f6" class="bar" opacity="0.8"/><rect x="180" y="205" width="8" height="6" fill="#3b82f6" class="bar"/><text x="196" y="219" class="time-label">0.019s</text>
<text x="20" y="251" class="lang-label">swift</text><rect x="180" y="237" width="15" height="20" fill="#3b82f6" class="bar" opacity="0.8"/><rect x="180" y="237" width="15" height="6" fill="#3b82f6" class="bar"/><text x="203" y="251" class="time-label">0.034s</text>
<text x="20" y="283" class="lang-label">bun</text><rect x="180" y="269" width="19" height="20" fill="#3b82f6" class="bar" opacity="0.8"/><rect x="180" y="269" width="19" height="6" fill="#3b82f6" class="bar"/><text x="207" y="283" class="time-label">0.043s</text>
<text x="20" y="315" class="lang-label">node</text><rect x="180" y="301" width="23" height="20" fill="#f59e0b" class="bar" opacity="0.8"/><rect x="180" y="301" width="23" height="6" fill="#f59e0b" class="bar"/><text x="211" y="315" class="time-label">0.052s</text>
<text x="20" y="347" class="lang-label">java</text><rect x="180" y="333" width="24" height="20" fill="#f59e0b" class="bar" opacity="0.8"/><rect x="180" y="333" width="24" height="6" fill="#f59e0b" class="bar"/><text x="212" y="347" class="time-label">0.053s</text>
<text x="20" y="379" class="lang-label">python</text><rect x="180" y="365" width="25" height="20" fill="#ef4444" class="bar" opacity="0.8"/><rect x="180" y="365" width="25" height="6" fill="#ef4444" class="bar"/><text x="213" y="379" class="time-label">0.055s</text>
<text x="20" y="411" class="lang-label">kotlin</text><rect x="180" y="397" width="31" height="20" fill="#ef4444" class="bar" opacity="0.8"/><rect x="180" y="397" width="31" height="6" fill="#ef4444" class="bar"/><text x="219" y="411" class="time-label">0.069s</text>
<text x="20" y="443" class="lang-label">csharp</text><rect x="180" y="429" width="45" height="20" fill="#ef4444" class="bar" opacity="0.8"/><rect x="180" y="429" width="45" height="6" fill="#ef4444" class="bar"/><text x="233" y="443" class="time-label">0.100s</text>
<line x1="20" y1="467" x2="980" y2="467" class="divider"/>
<text x="20" y="495" class="task-header">sort_ints</text>
<text x="20" y="530" class="lang-label">rust</text><rect x="180" y="516" width="20" height="20" fill="#22c55e" class="bar" opacity="0.8"/><rect x="180" y="516" width="20" height="6" fill="#22c55e" class="bar"/><text x="208" y="530" class="time-label">0.045s</text>
<text x="20" y="562" class="lang-label">cpp</text><rect x="180" y="548" width="66" height="20" fill="#22c55e" class="bar" opacity="0.8"/><rect x="180" y="548" width="66" height="6" fill="#22c55e" class="bar"/><text x="254" y="562" class="time-label">0.146s</text>
<text x="20" y="594" class="lang-label">swift</text><rect x="180" y="580" width="79" height="20" fill="#22c55e" class="bar" opacity="0.8"/><rect x="180" y="580" width="79" height="6" fill="#22c55e" class="bar"/><text x="267" y="594" class="time-label">0.176s</text>
<text x="20" y="626" class="lang-label">c</text><rect x="180" y="612" width="110" height="20" fill="#3b82f6" class="bar" opacity="0.8"/><rect x="180" y="612" width="110" height="6" fill="#3b82f6" class="bar"/><text x="298" y="626" class="time-label">0.245s</text>
<text x="20" y="658" class="lang-label">java</text><rect x="180" y="644" width="123" height="20" fill="#3b82f6" class="bar" opacity="0.8"/><rect x="180" y="644" width="123" height="6" fill="#3b82f6" class="bar"/><text x="311" y="658" class="time-label">0.274s</text>
<text x="20" y="690" class="lang-label">kotlin</text><rect x="180" y="676" width="127" height="20" fill="#3b82f6" class="bar" opacity="0.8"/><rect x="180" y="676" width="127" height="6" fill="#3b82f6" class="bar"/><text x="315" y="690" class="time-label">0.283s</text>
<text x="20" y="722" class="lang-label">go</text><rect x="180" y="708" width="134" height="20" fill="#f59e0b" class="bar" opacity="0.8"/><rect x="180" y="708" width="134" height="6" fill="#f59e0b" class="bar"/><text x="322" y="722" class="time-label">0.296s</text>
<text x="20" y="754" class="lang-label">csharp</text><rect x="180" y="740" width="160" height="20" fill="#f59e0b" class="bar" opacity="0.8"/><rect x="180" y="740" width="160" height="6" fill="#f59e0b" class="bar"/><text x="348" y="754" class="time-label">0.356s</text>
<text x="20" y="786" class="lang-label">bun</text><rect x="180" y="772" width="514" height="20" fill="#ef4444" class="bar" opacity="0.8"/><rect x="180" y="772" width="514" height="6" fill="#ef4444" class="bar"/><text x="702" y="786" class="time-label">1.141s</text>
<text x="20" y="818" class="lang-label">python</text><rect x="180" y="804" width="677" height="20" fill="#ef4444" class="bar" opacity="0.8"/><rect x="180" y="804" width="677" height="6" fill="#ef4444" class="bar"/><text x="865" y="818" class="time-label">1.502s</text>
<text x="20" y="850" class="lang-label">node</text><rect x="180" y="836" width="700" height="20" fill="#ef4444" class="bar" opacity="0.8"/><rect x="180" y="836" width="700" height="6" fill="#ef4444" class="bar"/><text x="888" y="850" class="time-label">1.554s</text>
<line x1="20" y1="874" x2="980" y2="874" class="divider"/>
<text x="20" y="902" class="task-header">matmul_f64</text>
<text x="20" y="937" class="lang-label">c</text><rect x="180" y="923" width="4" height="20" fill="#22c55e" class="bar" opacity="0.8"/><rect x="180" y="923" width="4" height="6" fill="#22c55e" class="bar"/><text x="192" y="937" class="time-label">0.005s</text>
<text x="20" y="969" class="lang-label">rust</text><rect x="180" y="955" width="4" height="20" fill="#22c55e" class="bar" opacity="0.8"/><rect x="180" y="955" width="4" height="6" fill="#22c55e" class="bar"/><text x="192" y="969" class="time-label">0.008s</text>
<text x="20" y="1001" class="lang-label">cpp</text><rect x="180" y="987" width="4" height="20" fill="#22c55e" class="bar" opacity="0.8"/><rect x="180" y="987" width="4" height="6" fill="#22c55e" class="bar"/><text x="192" y="1001" class="time-label">0.008s</text>
<text x="20" y="1033" class="lang-label">swift</text><rect x="180" y="1019" width="9" height="20" fill="#3b82f6" class="bar" opacity="0.8"/><rect x="180" y="1019" width="9" height="6" fill="#3b82f6" class="bar"/><text x="197" y="1033" class="time-label">0.020s</text>
<text x="20" y="1065" class="lang-label">go</text><rect x="180" y="1051" width="10" height="20" fill="#3b82f6" class="bar" opacity="0.8"/><rect x="180" y="1051" width="10" height="6" fill="#3b82f6" class="bar"/><text x="198" y="1065" class="time-label">0.022s</text>
<text x="20" y="1097" class="lang-label">bun</text><rect x="180" y="1083" width="23" height="20" fill="#3b82f6" class="bar" opacity="0.8"/><rect x="180" y="1083" width="23" height="6" fill="#3b82f6" class="bar"/><text x="211" y="1097" class="time-label">0.052s</text>
<text x="20" y="1129" class="lang-label">java</text><rect x="180" y="1115" width="23" height="20" fill="#f59e0b" class="bar" opacity="0.8"/><rect x="180" y="1115" width="23" height="6" fill="#f59e0b" class="bar"/><text x="211" y="1129" class="time-label">0.052s</text>
<text x="20" y="1161" class="lang-label">kotlin</text><rect x="180" y="1147" width="30" height="20" fill="#f59e0b" class="bar" opacity="0.8"/><rect x="180" y="1147" width="30" height="6" fill="#f59e0b" class="bar"/><text x="218" y="1161" class="time-label">0.066s</text>
<text x="20" y="1193" class="lang-label">node</text><rect x="180" y="1179" width="35" height="20" fill="#ef4444" class="bar" opacity="0.8"/><rect x="180" y="1179" width="35" height="6" fill="#ef4444" class="bar"/><text x="223" y="1193" class="time-label">0.078s</text>
<text x="20" y="1225" class="lang-label">csharp</text><rect x="180" y="1211" width="47" height="20" fill="#ef4444" class="bar" opacity="0.8"/><rect x="180" y="1211" width="47" height="6" fill="#ef4444" class="bar"/><text x="235" y="1225" class="time-label">0.103s</text>
<text x="20" y="1257" class="lang-label">python</text><rect x="180" y="1243" width="586" height="20" fill="#ef4444" class="bar" opacity="0.8"/><rect x="180" y="1243" width="586" height="6" fill="#ef4444" class="bar"/><text x="774" y="1257" class="time-label">1.301s</text>
<line x1="20" y1="1281" x2="980" y2="1281" class="divider"/>
<text x="20" y="1309" class="task-header">string_kmp</text>
<text x="20" y="1344" class="lang-label">rust</text><rect x="180" y="1330" width="7" height="20" fill="#22c55e" class="bar" opacity="0.8"/><rect x="180" y="1330" width="7" height="6" fill="#22c55e" class="bar"/><text x="195" y="1344" class="time-label">0.016s</text>
<text x="20" y="1376" class="lang-label">c</text><rect x="180" y="1362" width="7" height="20" fill="#22c55e" class="bar" opacity="0.8"/><rect x="180" y="1362" width="7" height="6" fill="#22c55e" class="bar"/><text x="195" y="1376" class="time-label">0.016s</text>
<text x="20" y="1408" class="lang-label">cpp</text><rect x="180" y="1394" width="8" height="20" fill="#22c55e" class="bar" opacity="0.8"/><rect x="180" y="1394" width="8" height="6" fill="#22c55e" class="bar"/><text x="196" y="1408" class="time-label">0.018s</text>
<text x="20" y="1440" class="lang-label">go</text><rect x="180" y="1426" width="9" height="20" fill="#3b82f6" class="bar" opacity="0.8"/><rect x="180" y="1426" width="9" height="6" fill="#3b82f6" class="bar"/><text x="197" y="1440" class="time-label">0.021s</text>
<text x="20" y="1472" class="lang-label">swift</text><rect x="180" y="1458" width="12" height="20" fill="#3b82f6" class="bar" opacity="0.8"/><rect x="180" y="1458" width="12" height="6" fill="#3b82f6" class="bar"/><text x="200" y="1472" class="time-label">0.026s</text>
<text x="20" y="1504" class="lang-label">java</text><rect x="180" y="1490" width="20" height="20" fill="#3b82f6" class="bar" opacity="0.8"/><rect x="180" y="1490" width="20" height="6" fill="#3b82f6" class="bar"/><text x="208" y="1504" class="time-label">0.045s</text>
<text x="20" y="1536" class="lang-label">kotlin</text><rect x="180" y="1522" width="28" height="20" fill="#f59e0b" class="bar" opacity="0.8"/><rect x="180" y="1522" width="28" height="6" fill="#f59e0b" class="bar"/><text x="216" y="1536" class="time-label">0.063s</text>
<text x="20" y="1568" class="lang-label">node</text><rect x="180" y="1554" width="42" height="20" fill="#f59e0b" class="bar" opacity="0.8"/><rect x="180" y="1554" width="42" height="6" fill="#f59e0b" class="bar"/><text x="230" y="1568" class="time-label">0.094s</text>
<text x="20" y="1600" class="lang-label">csharp</text><rect x="180" y="1586" width="45" height="20" fill="#ef4444" class="bar" opacity="0.8"/><rect x="180" y="1586" width="45" height="6" fill="#ef4444" class="bar"/><text x="233" y="1600" class="time-label">0.101s</text>
<text x="20" y="1632" class="lang-label">bun</text><rect x="180" y="1618" width="280" height="20" fill="#ef4444" class="bar" opacity="0.8"/><rect x="180" y="1618" width="280" height="6" fill="#ef4444" class="bar"/><text x="468" y="1632" class="time-label">0.621s</text>
<text x="20" y="1664" class="lang-label">python</text><rect x="180" y="1650" width="598" height="20" fill="#ef4444" class="bar" opacity="0.8"/><rect x="180" y="1650" width="598" height="6" fill="#ef4444" class="bar"/><text x="786" y="1664" class="time-label">1.328s</text>
</svg>